<svg xmlns="http://www.w3.org/2000/svg" viewBox="0 0 512 512">
  <defs>
    <pattern id="checkerMaskableV4" width="64" height="64" patternUnits="userSpaceOnUse">
      <rect width="64" height="64" fill="#1f1f1f" />
      <rect width="32" height="32" fill="#2f2f2f" />
      <rect x="32" y="32" width="32" height="32" fill="#2f2f2f" />
    </pattern>
    <clipPath id="scaffoldClipMaskable">
      <polygon points="168,366 238,108 268,108 198,366" />
    </clipPath>
  </defs>

  <rect width="512" height="512" fill="url(#checkerMaskableV4)" />

  <path d="M256 108L384 366H324L294 306H218L188 366H128L256 108ZM233 266H279L256 219L233 266Z" fill="#ef2f2f" />

  <polygon points="168,366 238,108 268,108 198,366" fill="#141414" />
  <g clip-path="url(#scaffoldClipMaskable)" stroke="#3d3d3d" stroke-width="7">
    <line x1="178" y1="330" x2="254" y2="182" />
    <line x1="172" y1="290" x2="258" y2="140" />
    <line x1="184" y1="360" x2="248" y2="226" />
    <line x1="166" y1="358" x2="274" y2="240" />
    <line x1="166" y1="298" x2="273" y2="180" />
    <line x1="166" y1="238" x2="271" y2="120" />
  </g>
</svg>
